# xmcd CD database file
#
# Track frame offsets:
#	150
#	14511
#	28094
#	48675
#	66071
#	83236
#	100476
#	117200
#	137242
#	156815
#	168335
#	182938
#	199189
#	215188
#	232851
#
# Disc length: 3487 seconds
#
# Revision: 1
# Processed by: cddbd v1.5.2PL0 Copyright (c) Steve Scherf et al.
# Submitted via: CDValet v3.40 - Copyright (c) 1996 - 1998 Greg Leichner
#
DISCID=d90d9d0f
DTITLE=Rowan, Peter - Best Of The Sugar Hill Years
DYEAR=1900
DGENRE=
TTITLE0=That High Lonesome Sound
TTITLE1=A Jealous Heart And A Worried Mind
TTITLE2=Walls Of Time
TTITLE3=Dust Bowl Children
TTITLE4=Girl In The Blue Velvet Band
TTITLE5=All On A Rising Day
TTITLE6=Hiroshima Mon Amour
TTITLE7=Rainmaker
TTITLE8=The First Whippoorwill
TTITLE9=You Taught Me How To Lose
TTITLE10=Memories Of You
TTITLE11=Last Train
TTITLE12=Howlin' At The Moon
TTITLE13=Wild Geese Cry Again
TTITLE14=Meadow Green
EXTD=
EXTT0=
EXTT1=
EXTT2=
EXTT3=
EXTT4=
EXTT5=
EXTT6=
EXTT7=
EXTT8=
EXTT9=
EXTT10=
EXTT11=
EXTT12=
EXTT13=
EXTT14=
PLAYORDER=
